<?xml version="1.0" encoding="UTF-8"?>
<svg width="48" height="48" version="1.1" xmlns="http://www.w3.org/2000/svg" xmlns:xlink="http://www.w3.org/1999/xlink">
 <defs>
  <linearGradient id="linearGradient5988" x1="4" x2="44" y1="24.475" y2="24.475" gradientUnits="userSpaceOnUse">
   <stop stop-color="#fab387" offset="0"/>
   <stop stop-color="#f5e0dc" offset="1"/>
  </linearGradient>
 </defs>
 <path d="m4 40v-4.75q0-1.7 0.9-3.125t2.5-2.125q3-1.35 6.15-2.175t6.45-0.825q1.65 0 3.3 0.225t3.3 0.575v2.65q-2.25 0.85-3.725 2.75t-1.475 4.3v2.5zm20.4 0v-2.55q0-1.15 0.55-2.125t1.55-1.525q1.8-0.95 3.725-1.4t3.975-0.45 4 0.45q1.95 0.45 3.7 1.4 1 0.5 1.55 1.5t0.55 2.15v2.55zm9.8-11.05q-1.95 0-3.325-1.375t-1.375-3.325 1.375-3.325 3.325-1.375 3.325 1.375 1.375 3.325-1.375 3.325-3.325 1.375zm-14.2-5q-3.15 0-5.325-2.175t-2.175-5.325 2.175-5.325 5.325-2.175 5.325 2.175 2.175 5.325-2.175 5.325-5.325 2.175z" fill="url(#linearGradient5988)"/>
</svg>
