<?xml version="1.0" encoding="UTF-8"?>
<svg class="bi bi-translate" width="16px" height="16px" fill="currentColor" version="1.1" viewBox="0 0 16 16" xmlns="http://www.w3.org/2000/svg" xmlns:xlink="http://www.w3.org/1999/xlink">
 <defs>
  <linearGradient id="linearGradient876" x1="3.5472" x2="12.453" y1="8" y2="8" gradientUnits="userSpaceOnUse">
   <stop stop-color="#7845cf" offset="0"/>
   <stop stop-color="#c3e7ff" offset="1"/>
  </linearGradient>
 </defs>
 <g fill="url(#linearGradient876)">
  <path d="m6.0769 7.2842-0.24212 0.71579h-0.61783l1.0364-2.783h0.71467l1.0319 2.783h-0.64955l-0.24212-0.71579zm0.90948-0.40966-0.37793-1.1254h-0.027273l-0.37793 1.1254h0.78369z"/>
  <path d="m3.5472 4.6604a1.1132 1.1132 0 0 1 1.1132-1.1132h3.8962a1.1132 1.1132 0 0 1 1.1132 1.1132v1.6698h1.6698a1.1132 1.1132 0 0 1 1.1132 1.1132v3.8962a1.1132 1.1132 0 0 1-1.1132 1.1132h-3.8962a1.1132 1.1132 0 0 1-1.1132-1.1132v-1.6698h-1.6698a1.1132 1.1132 0 0 1-1.1132-1.1132zm1.1132-0.5566a0.5566 0.5566 0 0 0-0.5566 0.5566v3.8962a0.5566 0.5566 0 0 0 0.5566 0.5566h3.8962a0.5566 0.5566 0 0 0 0.5566-0.5566v-3.8962a0.5566 0.5566 0 0 0-0.5566-0.5566zm3.973 5.5632c0.10742 0.16754 0.22375 0.3245 0.35066 0.47088-0.41634 0.32004-0.93119 0.55716-1.5407 0.71913 0.099075 0.12078 0.25103 0.35344 0.30891 0.48257 0.62618-0.19982 1.1577-0.46977 1.6063-0.83156 0.43248 0.37014 0.96793 0.64844 1.6308 0.81932 0.07403-0.14138 0.23043-0.37459 0.3501-0.49537-0.62618-0.14082-1.1449-0.38628-1.5696-0.71468 0.37904-0.41578 0.68017-0.91895 0.90225-1.5345h0.66736v-0.58276h-1.6698v0.58276h0.4258c-0.177 0.46977-0.41188 0.8605-0.708 1.1856a3.3763 3.3763 0 0 1-0.23099-0.27385 1.1065 1.1065 0 0 1-0.5232 0.17255z"/>
 </g>
</svg>
