<svg width="512" height="512" viewBox="0 0 512 512" fill="none" xmlns="http://www.w3.org/2000/svg">
<path d="M271.36 182.614C271.36 174.13 264.483 167.254 256 167.254C247.517 167.254 240.64 174.13 240.64 182.614V255.296C240.64 259.823 242.438 264.164 245.639 267.364L304.872 326.596C310.871 332.594 320.596 332.594 326.595 326.596C332.593 320.597 332.593 310.872 326.594 304.873L271.36 249.641V182.614Z" fill="black"/>
<path fill-rule="evenodd" clip-rule="evenodd" d="M426.667 256C426.667 350.257 350.257 426.667 256 426.667C161.743 426.667 85.3333 350.257 85.3333 256C85.3333 161.743 161.743 85.3333 256 85.3333C350.257 85.3333 426.667 161.743 426.667 256ZM395.947 256C395.947 333.29 333.29 395.947 256 395.947C178.71 395.947 116.053 333.29 116.053 256C116.053 178.71 178.71 116.053 256 116.053C333.29 116.053 395.947 178.71 395.947 256Z" fill="black"/>
</svg>
