<?xml version="1.0" encoding="UTF-8" standalone="no"?>
<svg
   width="512"
   height="512"
   viewBox="0 0 512 512"
   fill="none"
   version="1.1"
   id="svg70"
   sodipodi:docname="ClockYou.svg"
   inkscape:version="1.2.2 (b0a8486541, 2022-12-01)"
   xmlns:inkscape="http://www.inkscape.org/namespaces/inkscape"
   xmlns:sodipodi="http://sodipodi.sourceforge.net/DTD/sodipodi-0.dtd"
   xmlns="http://www.w3.org/2000/svg"
   xmlns:svg="http://www.w3.org/2000/svg">
  <sodipodi:namedview
     id="namedview72"
     pagecolor="#ffffff"
     bordercolor="#666666"
     borderopacity="1.0"
     inkscape:showpageshadow="2"
     inkscape:pageopacity="0.0"
     inkscape:pagecheckerboard="0"
     inkscape:deskcolor="#d1d1d1"
     showgrid="false"
     inkscape:zoom="1.5058594"
     inkscape:cx="256.66407"
     inkscape:cy="176.64332"
     inkscape:window-width="2536"
     inkscape:window-height="962"
     inkscape:window-x="0"
     inkscape:window-y="0"
     inkscape:window-maximized="1"
     inkscape:current-layer="svg70" />
  <mask
     id="mask0_1_13"
     style="mask-type:alpha"
     maskUnits="userSpaceOnUse"
     x="51"
     y="51"
     width="410"
     height="410">
    <rect
       x="51.2"
       y="51.2"
       width="409.6"
       height="409.6"
       fill="#D9D9D9"
       id="rect56" />
  </mask>
  <g
     mask="url(#mask0_1_13)"
     id="g61">
    <path
       d="M312.32 336.213L336.213 312.32L273.067 249.173V170.667H238.933V262.827L312.32 336.213ZM256 426.667C232.391 426.667 210.204 422.187 189.44 413.227C168.676 404.267 150.613 392.107 135.253 376.747C119.893 361.387 107.733 343.324 98.7734 322.56C89.8134 301.796 85.3334 279.609 85.3334 256C85.3334 232.391 89.8134 210.204 98.7734 189.44C107.733 168.676 119.893 150.613 135.253 135.253C150.613 119.893 168.676 107.733 189.44 98.7733C210.204 89.8133 232.391 85.3333 256 85.3333C279.609 85.3333 301.796 89.8133 322.56 98.7733C343.325 107.733 361.387 119.893 376.747 135.253C392.107 150.613 404.267 168.676 413.227 189.44C422.187 210.204 426.667 232.391 426.667 256C426.667 279.609 422.187 301.796 413.227 322.56C404.267 343.324 392.107 361.387 376.747 376.747C361.387 392.107 343.325 404.267 322.56 413.227C301.796 422.187 279.609 426.667 256 426.667ZM256 392.533C293.831 392.533 326.045 379.236 352.64 352.64C379.236 326.044 392.533 293.831 392.533 256C392.533 218.169 379.236 185.956 352.64 159.36C326.045 132.764 293.831 119.467 256 119.467C218.169 119.467 185.956 132.764 159.36 159.36C132.764 185.956 119.467 218.169 119.467 256C119.467 293.831 132.764 326.044 159.36 352.64C185.956 379.236 218.169 392.533 256 392.533Z"
       fill="url(#paint0_linear_1_13)"
       id="path59" />
  </g>
  <defs
     id="defs68">
    <linearGradient
       id="paint0_linear_1_13"
       x1="85.3334"
       y1="85.3333"
       x2="426.667"
       y2="426.667"
       gradientUnits="userSpaceOnUse">
      <stop
         stop-color="#7287FD"
         id="stop63" />
      <stop
         offset="1"
         stop-color="#8839EF"
         id="stop65" />
    </linearGradient>
  </defs>
</svg>
