<svg width="512" height="512" viewBox="0 0 512 512" fill="none" xmlns="http://www.w3.org/2000/svg">
<path fill-rule="evenodd" clip-rule="evenodd" d="M324.267 187.733C324.267 225.436 293.703 256 256 256C218.297 256 187.733 225.436 187.733 187.733C187.733 150.031 218.297 119.467 256 119.467C293.703 119.467 324.267 150.031 324.267 187.733ZM293.547 187.733C293.547 208.47 276.736 225.28 256 225.28C235.264 225.28 218.453 208.47 218.453 187.733C218.453 166.997 235.264 150.187 256 150.187C276.736 150.187 293.547 166.997 293.547 187.733Z" fill="black"/>
<path fill-rule="evenodd" clip-rule="evenodd" d="M147.588 298.861C151.59 296.46 155.777 294.383 160.11 292.649L169.507 288.891C181.632 284.04 194.177 280.311 206.983 277.75L209.212 277.304C240.098 271.127 271.902 271.127 302.788 277.304L305.017 277.75C317.823 280.311 330.368 284.04 342.493 288.891L351.89 292.649C356.223 294.383 360.41 296.46 364.412 298.861L369.463 301.891C373.444 304.28 377.053 307.239 380.176 310.674C388.128 319.42 392.533 330.817 392.533 342.637V346.453C392.533 371.903 371.903 392.533 346.453 392.533H165.547C140.097 392.533 119.467 371.903 119.467 346.453V342.637C119.467 330.817 123.873 319.42 131.824 310.674C134.947 307.239 138.556 304.28 142.537 301.891L147.588 298.861ZM361.813 346.453C361.813 354.937 354.936 361.813 346.453 361.813H165.547C157.064 361.813 150.187 354.937 150.187 346.453V342.637C150.187 338.459 151.744 334.43 154.555 331.338C155.659 330.124 156.935 329.078 158.342 328.234L163.393 325.203C165.99 323.645 168.707 322.297 171.519 321.172L180.916 317.413C191.299 313.26 202.041 310.067 213.007 307.874L215.237 307.428C242.146 302.046 269.854 302.046 296.763 307.428L298.993 307.874C309.959 310.067 320.701 313.26 331.084 317.413L340.481 321.172C343.293 322.297 346.01 323.645 348.607 325.203L353.658 328.234C355.065 329.078 356.341 330.124 357.445 331.338C360.256 334.43 361.813 338.459 361.813 342.637V346.453Z" fill="black"/>
</svg>
