<svg width="512" height="512" viewBox="0 0 512 512" fill="none" xmlns="http://www.w3.org/2000/svg">
<path fill-rule="evenodd" clip-rule="evenodd" d="M197.973 119.467V146.773H119.467V177.493H147.745C149.538 182.554 151.84 188.789 153.996 193.802C158.498 204.269 161.404 210.845 167.79 221.326C173.637 230.921 177.659 236.117 184.342 244.348C186.29 246.748 188.583 249.379 190.844 251.894C189.515 252.934 188.231 253.923 187.069 254.791C181.2 259.179 178.248 260.998 171.517 264.886C164.389 269.003 160.204 271.129 152.748 274.275C144.403 277.796 139.924 279.589 131.597 282.415C129.39 283.164 126.441 284.094 123.955 284.863C122.731 285.242 121.653 285.57 120.882 285.804L119.979 286.077L119.682 286.167L137.143 312.922C138.632 312.447 140.136 311.958 141.47 311.505C150.724 308.364 155.931 306.275 164.692 302.578C173.447 298.884 178.774 296.171 186.882 291.487C194.242 287.237 198.301 284.75 205.464 279.395C207.916 277.562 210.718 275.362 213.333 273.27C215.948 275.362 218.75 277.562 221.203 279.395C228.365 284.75 232.425 287.237 239.784 291.487C244.522 294.224 248.311 296.288 252.389 298.268L263.022 269.237C260.61 267.989 258.138 266.613 255.149 264.886C248.419 260.998 245.467 259.179 239.597 254.791C238.436 253.923 237.151 252.934 235.823 251.894C238.083 249.379 240.376 246.748 242.325 244.348C249.007 236.117 253.03 230.921 258.877 221.326C265.263 210.845 268.168 204.269 272.67 193.802C274.826 188.789 277.128 182.554 278.921 177.493H307.2V146.773H228.693V119.467H197.973ZM182.217 181.664C181.668 180.389 181.093 178.979 180.509 177.493H246.158C245.573 178.979 244.998 180.389 244.45 181.664C240.119 191.734 237.889 196.731 232.643 205.341C227.806 213.279 224.734 217.276 218.475 224.985C217.01 226.789 215.212 228.862 213.333 230.959C211.455 228.862 209.656 226.789 208.191 224.985C201.933 217.276 198.86 213.279 194.023 205.341C188.777 196.731 186.548 191.734 182.217 181.664Z" fill="black"/>
<path fill-rule="evenodd" clip-rule="evenodd" d="M305.15 243.541H337.868L392.482 392.533H359.763L347.001 357.717H296.018L283.256 392.533H250.537L305.15 243.541ZM321.509 288.172L335.741 326.997H307.278L321.509 288.172Z" fill="black"/>
</svg>
