<?xml version="1.0" encoding="UTF-8" standalone="no"?>
<svg
   width="512"
   height="512"
   viewBox="0 0 512 512"
   fill="none"
   version="1.1"
   id="svg842"
   sodipodi:docname="WallYou.svg"
   inkscape:version="1.2.2 (b0a8486541, 2022-12-01)"
   xmlns:inkscape="http://www.inkscape.org/namespaces/inkscape"
   xmlns:sodipodi="http://sodipodi.sourceforge.net/DTD/sodipodi-0.dtd"
   xmlns="http://www.w3.org/2000/svg"
   xmlns:svg="http://www.w3.org/2000/svg">
  <sodipodi:namedview
     id="namedview844"
     pagecolor="#ffffff"
     bordercolor="#666666"
     borderopacity="1.0"
     inkscape:showpageshadow="2"
     inkscape:pageopacity="0.0"
     inkscape:pagecheckerboard="0"
     inkscape:deskcolor="#d1d1d1"
     showgrid="false"
     inkscape:zoom="1.5058594"
     inkscape:cx="256"
     inkscape:cy="256.33204"
     inkscape:window-width="2536"
     inkscape:window-height="962"
     inkscape:window-x="0"
     inkscape:window-y="0"
     inkscape:window-maximized="1"
     inkscape:current-layer="svg842" />
  <mask
     id="mask0_2_46"
     style="mask-type:alpha"
     maskUnits="userSpaceOnUse"
     x="51"
     y="34"
     width="410"
     height="410">
    <rect
       x="51.2001"
       y="34.1333"
       width="409.6"
       height="409.6"
       fill="#D9D9D9"
       id="rect828" />
  </mask>
  <g
     mask="url(#mask0_2_46)"
     id="g833">
    <path
       d="M102.4 341.333C95.2887 341.333 90.1687 338.204 87.0398 331.947C83.911 325.689 84.4798 319.716 88.7465 314.027L157.013 223.147C160.427 218.596 164.978 216.32 170.667 216.32C176.355 216.32 180.907 218.596 184.32 223.147L247.467 307.2H375.467L290.133 193.707L247.467 250.027L226.133 221.867L276.48 154.88C279.893 150.329 284.444 148.053 290.133 148.053C295.822 148.053 300.373 150.329 303.787 154.88L423.253 314.027C427.52 319.716 428.089 325.689 424.96 331.947C421.831 338.204 416.711 341.333 409.6 341.333H102.4ZM136.533 307.2H204.8L170.667 261.547L136.533 307.2Z"
       fill="url(#paint0_linear_2_46)"
       id="path831" />
  </g>
  <defs
     id="defs840">
    <linearGradient
       id="paint0_linear_2_46"
       x1="85.3332"
       y1="153.6"
       x2="426.666"
       y2="341.333"
       gradientUnits="userSpaceOnUse">
      <stop
         stop-color="#7287FD"
         id="stop835" />
      <stop
         offset="1"
         stop-color="#8839EF"
         id="stop837" />
    </linearGradient>
  </defs>
</svg>
