<svg width="512" height="512" viewBox="0 0 512 512" fill="none" xmlns="http://www.w3.org/2000/svg">
<circle cx="256" cy="256" r="256" fill="#EFF1F5"/>
<path fill-rule="evenodd" clip-rule="evenodd" d="M341.334 192.388L375.728 226.781L397.45 205.059L363.056 170.665L397.449 136.273L375.727 114.55L341.334 148.943L306.941 114.549L285.218 136.272L319.612 170.665L285.217 205.06L306.939 226.782L341.334 192.388ZM155.308 401.067V356.693H110.933V325.973H155.308V281.6H186.028V325.973H230.4V356.693H186.028V401.067H155.308ZM281.6 300.373H401.067V331.093H281.6V300.373ZM281.6 351.573H401.067V382.293H281.6V351.573ZM226.133 155.306H106.667V186.026H226.133V155.306Z" fill="url(#paint0_linear_170_10)"/>
<defs>
<linearGradient id="paint0_linear_170_10" x1="107" y1="115" x2="401" y2="401" gradientUnits="userSpaceOnUse">
<stop stop-color="#7287FD"/>
<stop offset="1" stop-color="#8839EF"/>
</linearGradient>
</defs>
</svg>
