<svg width="512" height="512" viewBox="0 0 512 512" fill="none" xmlns="http://www.w3.org/2000/svg">
<rect y="3.8147e-06" width="512" height="512" fill="#EFF1F5"/>
<mask id="mask0_3_138" style="mask-type:alpha" maskUnits="userSpaceOnUse" x="51" y="51" width="410" height="410">
<rect x="51.2" y="51.2" width="409.6" height="409.6" fill="#D9D9D9"/>
</mask>
<g mask="url(#mask0_3_138)">
<path d="M256 256C237.227 256 221.156 249.316 207.787 235.947C194.418 222.578 187.733 206.507 187.733 187.733C187.733 168.96 194.418 152.889 207.787 139.52C221.156 126.151 237.227 119.467 256 119.467C274.773 119.467 290.844 126.151 304.213 139.52C317.582 152.889 324.267 168.96 324.267 187.733C324.267 206.507 317.582 222.578 304.213 235.947C290.844 249.316 274.773 256 256 256ZM358.4 392.533H153.6C144.213 392.533 136.178 389.191 129.493 382.507C122.809 375.822 119.467 367.787 119.467 358.4V344.747C119.467 335.076 121.956 326.187 126.933 318.08C131.911 309.973 138.524 303.787 146.773 299.52C164.409 290.702 182.329 284.089 200.533 279.68C218.738 275.271 237.227 273.067 256 273.067C274.773 273.067 293.262 275.271 311.467 279.68C329.671 284.089 347.591 290.702 365.227 299.52C373.476 303.787 380.089 309.973 385.067 318.08C390.044 326.187 392.533 335.076 392.533 344.747V358.4C392.533 367.787 389.191 375.822 382.507 382.507C375.822 389.191 367.787 392.533 358.4 392.533ZM153.6 358.4H358.4V344.747C358.4 341.618 357.618 338.773 356.053 336.213C354.489 333.653 352.427 331.662 349.867 330.24C334.507 322.56 319.004 316.8 303.36 312.96C287.716 309.12 271.929 307.2 256 307.2C240.071 307.2 224.284 309.12 208.64 312.96C192.996 316.8 177.493 322.56 162.133 330.24C159.573 331.662 157.511 333.653 155.947 336.213C154.382 338.773 153.6 341.618 153.6 344.747V358.4ZM256 221.867C265.387 221.867 273.422 218.524 280.107 211.84C286.791 205.156 290.133 197.12 290.133 187.733C290.133 178.347 286.791 170.311 280.107 163.627C273.422 156.942 265.387 153.6 256 153.6C246.613 153.6 238.578 156.942 231.893 163.627C225.209 170.311 221.867 178.347 221.867 187.733C221.867 197.12 225.209 205.156 231.893 211.84C238.578 218.524 246.613 221.867 256 221.867Z" fill="url(#paint0_linear_3_138)"/>
</g>
<defs>
<linearGradient id="paint0_linear_3_138" x1="119.467" y1="119.467" x2="392.533" y2="392.533" gradientUnits="userSpaceOnUse">
<stop stop-color="#7287FD"/>
<stop offset="1" stop-color="#8839EF"/>
</linearGradient>
</defs>
</svg>
