<svg width="512" height="512" viewBox="0 0 512 512" fill="none" xmlns="http://www.w3.org/2000/svg">
<circle cx="256" cy="256" r="256" fill="#EFF1F5"/>
<path fill-rule="evenodd" clip-rule="evenodd" d="M256 85.3333C227.723 85.3333 204.8 108.256 204.8 136.533V256C204.8 284.277 227.723 307.2 256 307.2C284.277 307.2 307.2 284.277 307.2 256V136.533C307.2 108.256 284.277 85.3333 256 85.3333ZM276.48 256V136.533C276.48 125.223 267.311 116.053 256 116.053C244.69 116.053 235.52 125.223 235.52 136.533V256C235.52 267.311 244.69 276.48 256 276.48C267.311 276.48 276.48 267.311 276.48 256Z" fill="url(#paint0_linear_138_11)"/>
<path d="M353.28 240.64C361.764 240.64 368.64 247.517 368.64 256C368.64 312.999 326.303 360.11 271.36 367.602V426.667H240.64V367.601C185.697 360.11 143.36 312.999 143.36 256C143.36 247.517 150.237 240.64 158.72 240.64C167.204 240.64 174.08 247.517 174.08 256C174.08 301.243 210.757 337.92 256 337.92C301.244 337.92 337.92 301.243 337.92 256C337.92 247.517 344.797 240.64 353.28 240.64Z" fill="url(#paint1_linear_138_11)"/>
<defs>
<linearGradient id="paint0_linear_138_11" x1="136.533" y1="85.3333" x2="375.467" y2="426.667" gradientUnits="userSpaceOnUse">
<stop stop-color="#7287FD"/>
<stop offset="1" stop-color="#8839EF"/>
</linearGradient>
<linearGradient id="paint1_linear_138_11" x1="136.533" y1="85.3333" x2="375.467" y2="426.667" gradientUnits="userSpaceOnUse">
<stop stop-color="#7287FD"/>
<stop offset="1" stop-color="#8839EF"/>
</linearGradient>
</defs>
</svg>
