<svg width="512" height="512" viewBox="0 0 512 512" fill="none" xmlns="http://www.w3.org/2000/svg">
<circle cx="256" cy="256" r="256" fill="#EFF1F5"/>
<path fill-rule="evenodd" clip-rule="evenodd" d="M250.478 85.3369L281.198 85.3333L281.2 93.2624L281.802 100.781C283.066 110.177 285.935 119.286 290.287 127.71L291.242 129.56C295.246 137.31 300.303 144.469 306.269 150.833L337.625 184.28C344.781 191.913 350.9 200.456 355.824 209.688L356.554 211.056C361.545 220.415 365.138 230.455 367.218 240.856C369.094 250.237 369.722 259.825 369.086 269.37L368.961 271.242C368.385 279.891 366.893 288.455 364.512 296.789L362.653 303.294C360.084 312.286 356.842 321.072 352.953 329.578L344.659 347.721C341.132 355.436 332.019 358.832 324.304 355.305C316.589 351.778 313.193 342.664 316.72 334.949L325.014 316.806C328.262 309.702 330.97 302.364 333.115 294.854L334.974 288.35C336.759 282.102 337.877 275.682 338.309 269.199L338.434 267.327C338.89 260.482 338.44 253.607 337.095 246.88C335.603 239.423 333.027 232.223 329.448 225.513L328.718 224.145C325.064 217.294 320.524 210.955 315.214 205.29L283.858 171.844C282.956 170.882 282.07 169.907 281.2 168.918V357.719C281.264 368.018 277.695 378.077 272.267 386.665C263.854 399.974 250.128 411.403 233.464 418.718C216.8 426.033 199.096 428.4 183.605 425.584C168.222 422.788 153.274 414.373 146.385 398.678C139.496 382.984 143.419 366.284 151.773 353.069C160.186 339.76 173.912 328.33 190.575 321.015C207.239 313.701 224.943 311.333 240.434 314.149C243.831 314.767 247.207 315.658 250.48 316.842V94.4911L250.478 85.3369ZM177.74 369.483C172.956 377.051 172.97 382.813 174.514 386.331C176.058 389.848 180.29 393.759 189.099 395.36C197.799 396.941 209.298 395.777 221.116 390.589C232.934 385.401 241.575 377.725 246.3 370.25C251.084 362.682 251.069 356.921 249.525 353.403C247.981 349.885 243.75 345.975 234.941 344.374C226.24 342.792 214.741 343.957 202.923 349.145C191.106 354.332 182.465 362.009 177.74 369.483Z" fill="url(#paint0_linear_134_5)"/>
<defs>
<linearGradient id="paint0_linear_134_5" x1="135.621" y1="85.3349" x2="374.554" y2="443.735" gradientUnits="userSpaceOnUse">
<stop stop-color="#7287FD"/>
<stop offset="1" stop-color="#8839EF"/>
</linearGradient>
</defs>
</svg>
