<svg width="512" height="512" viewBox="0 0 512 512" fill="none" xmlns="http://www.w3.org/2000/svg">
<circle cx="256" cy="256" r="256" fill="#EFF1F5"/>
<path fill-rule="evenodd" clip-rule="evenodd" d="M382.31 321.95L290.128 199.042L243.146 261.575L223.95 235.982L276.493 166.047C283.324 156.956 296.968 156.961 303.791 166.059L423.27 325.364C431.708 336.615 423.68 352.67 409.617 352.67H102.402C88.3381 352.67 80.3103 336.615 88.7485 325.364L157.015 234.341C163.795 225.302 177.308 225.24 184.181 234.155L247.979 319.219L250.039 321.95H382.31ZM129.709 321.95H211.629L170.669 267.337L129.709 321.95Z" fill="url(#paint0_linear_137_9)"/>
<defs>
<linearGradient id="paint0_linear_137_9" x1="85.3333" y1="164.937" x2="426.667" y2="352.67" gradientUnits="userSpaceOnUse">
<stop stop-color="#7287FD"/>
<stop offset="1" stop-color="#8839EF"/>
</linearGradient>
</defs>
</svg>
