<?xml version="1.0" encoding="UTF-8" standalone="no"?>
<!-- Uploaded to: SVG Repo, www.svgrepo.com, Generator: SVG Repo Mixer Tools -->

<svg
   height="800px"
   width="800px"
   version="1.1"
   id="_x32_"
   viewBox="0 0 512 512"
   xml:space="preserve"
   sodipodi:docname="YouApps.svg"
   inkscape:version="1.3.2 (091e20ef0f, 2023-11-25)"
   inkscape:export-filename="../../../../Downloads/YouApps.png"
   inkscape:export-xdpi="96"
   inkscape:export-ydpi="96"
   xmlns:inkscape="http://www.inkscape.org/namespaces/inkscape"
   xmlns:sodipodi="http://sodipodi.sourceforge.net/DTD/sodipodi-0.dtd"
   xmlns:xlink="http://www.w3.org/1999/xlink"
   xmlns="http://www.w3.org/2000/svg"
   xmlns:svg="http://www.w3.org/2000/svg"><defs
   id="defs4"><linearGradient
     id="linearGradient4"
     inkscape:collect="always"><stop
       style="stop-color:#7287fd;stop-opacity:1;"
       offset="0"
       id="stop4" /><stop
       style="stop-color:#8839ef;stop-opacity:1;"
       offset="1"
       id="stop5" /></linearGradient><linearGradient
     inkscape:collect="always"
     xlink:href="#linearGradient4"
     id="linearGradient5"
     x1="0"
     y1="256"
     x2="512"
     y2="256"
     gradientUnits="userSpaceOnUse" /><linearGradient
     inkscape:collect="always"
     xlink:href="#linearGradient4"
     id="linearGradient1"
     gradientUnits="userSpaceOnUse"
     x1="0"
     y1="256"
     x2="512"
     y2="256" /><linearGradient
     inkscape:collect="always"
     xlink:href="#linearGradient4"
     id="linearGradient2"
     gradientUnits="userSpaceOnUse"
     x1="0"
     y1="256"
     x2="512"
     y2="256" /><linearGradient
     inkscape:collect="always"
     xlink:href="#linearGradient4"
     id="linearGradient3"
     gradientUnits="userSpaceOnUse"
     x1="0"
     y1="256"
     x2="512"
     y2="256" /><linearGradient
     inkscape:collect="always"
     xlink:href="#linearGradient4"
     id="linearGradient6"
     gradientUnits="userSpaceOnUse"
     x1="0"
     y1="256"
     x2="512"
     y2="256" /></defs><sodipodi:namedview
   id="namedview4"
   pagecolor="#eff1f5"
   bordercolor="#666666"
   borderopacity="1.0"
   inkscape:showpageshadow="2"
   inkscape:pageopacity="0.0"
   inkscape:pagecheckerboard="0"
   inkscape:deskcolor="#d1d1d1"
   inkscape:zoom="0.2496875"
   inkscape:cx="-110.13767"
   inkscape:cy="460.57572"
   inkscape:window-width="1132"
   inkscape:window-height="960"
   inkscape:window-x="0"
   inkscape:window-y="0"
   inkscape:window-maximized="1"
   inkscape:current-layer="_x32_"
   inkscape:export-bgcolor="#eff1f5ff" />
<style
   type="text/css"
   id="style1">
	.st0{fill:#000000;}
</style>
<g
   id="g4"
   transform="matrix(0.93997775,0,0,0.93997775,15.365697,15.365697)"
   style="fill:url(#linearGradient5)">
	<path
   class="st0"
   d="m 295.599,242.266 c 1.51,4.4 2.288,9.058 2.279,13.742 0,1.294 -0.059,2.596 -0.168,3.907 -0.994,41.236 -17.607,80.065 -46.778,109.228 -30.206,30.215 -70.397,46.862 -113.177,46.879 -4.408,0 -8.842,-0.184 -13.233,-0.534 6.604,21.089 18.36,40.441 34.139,56.229 25.965,25.973 60.529,40.283 97.331,40.283 36.793,-0.008 71.532,-14.485 97.822,-40.776 18.894,-18.893 31.734,-42.712 37.094,-68.903 0.25,-1.202 0.443,-2.187 0.634,-3.147 1.47,-8.249 2.221,-16.648 2.221,-24.946 0,-36.802 -14.418,-71.466 -40.576,-97.622 -16.028,-16.031 -35.831,-27.828 -57.588,-34.34 z"
   id="path1"
   style="fill:url(#linearGradient1)" />
	<path
   class="st0"
   d="m 216.402,269.717 c -1.512,-4.383 -2.296,-9.033 -2.296,-13.726 0.008,-1.293 0.075,-2.554 0.159,-3.807 l 0.025,-0.409 c 1.044,-41.076 17.658,-79.807 46.779,-108.927 30.206,-30.198 70.406,-46.845 113.177,-46.879 4.433,0.008 8.866,0.183 13.25,0.551 C 380.884,75.431 369.162,56.095 353.416,40.34 327.399,14.327 292.801,0 256.008,0 c -36.793,0 -71.382,14.334 -97.414,40.366 -19.111,19.11 -32.068,43.063 -37.486,69.295 -0.192,1.01 -0.392,2.037 -0.584,3.106 l -0.518,2.955 c -1.169,7.281 -1.754,14.694 -1.761,22.041 0,36.802 14.318,71.391 40.35,97.406 16.146,16.155 36.016,28.011 57.807,34.548 z"
   id="path2"
   style="fill:url(#linearGradient2)" />
	<path
   class="st0"
   d="M 471.684,158.611 C 452.59,139.517 428.595,126.543 402.305,121.1 c -0.952,-0.209 -1.92,-0.401 -2.896,-0.551 -8.324,-1.511 -16.765,-2.279 -25.188,-2.305 -36.793,-0.008 -71.391,14.327 -97.415,40.342 -16.138,16.138 -27.993,36.017 -34.522,57.823 4.367,-1.502 9.001,-2.295 13.684,-2.304 1.319,0 2.572,0.076 3.824,0.151 41.402,1.018 80.09,17.566 109.136,46.611 30.365,30.365 47.087,70.623 47.087,113.378 0,4.424 -0.2,8.858 -0.542,13.232 21.08,-6.604 40.425,-18.325 56.162,-34.064 C 497.665,327.374 512,292.784 512,255.991 512,219.198 497.69,184.6 471.684,158.611 Z"
   id="path3"
   style="fill:url(#linearGradient3)" />
	<path
   class="st0"
   d="m 235.194,353.414 c 16.122,-16.13 27.968,-36 34.522,-57.832 -4.391,1.519 -9.058,2.304 -13.75,2.296 -1.136,0 -2.287,-0.067 -3.398,-0.167 -41.277,-0.776 -80.324,-17.407 -109.712,-46.803 -30.232,-30.231 -46.879,-70.414 -46.871,-113.144 0,-4.391 0.175,-8.842 0.543,-13.258 -21.056,6.596 -40.4,18.309 -56.154,34.08 C 14.343,184.618 0,219.215 0,256.008 c 0,36.802 14.268,71.316 40.141,97.205 19.177,19.169 43.238,32.21 69.562,37.678 l 3.298,0.668 c 7.998,1.453 16.347,2.196 24.754,2.196 36.819,10e-4 71.425,-14.335 97.439,-40.341 z"
   id="path4"
   style="fill:url(#linearGradient6)" />
</g>
</svg>
