<svg width="512" height="512" viewBox="0 0 512 512" fill="none" xmlns="http://www.w3.org/2000/svg">
<path fill-rule="evenodd" clip-rule="evenodd" d="M256 181.333C273.673 181.333 288 167.006 288 149.333C288 131.66 273.673 117.333 256 117.333C238.327 117.333 224 131.66 224 149.333C224 167.006 238.327 181.333 256 181.333ZM106.667 277.333V234.667H405.333V277.333H106.667ZM288 362.667C288 380.34 273.673 394.667 256 394.667C238.327 394.667 224 380.34 224 362.667C224 344.994 238.327 330.667 256 330.667C273.673 330.667 288 344.994 288 362.667Z" fill="black"/>
</svg>
