<svg width="512" height="512" viewBox="0 0 512 512" fill="none" xmlns="http://www.w3.org/2000/svg">
<path fill-rule="evenodd" clip-rule="evenodd" d="M188.118 142.863C200.615 155.36 200.615 175.621 188.118 188.118C175.621 200.615 155.36 200.615 142.863 188.118C130.366 175.621 130.366 155.36 142.863 142.863C155.36 130.366 175.621 130.366 188.118 142.863ZM218.288 112.693C247.447 141.852 247.447 189.129 218.288 218.288C189.128 247.447 141.852 247.447 112.693 218.288C83.5339 189.129 83.5339 141.852 112.693 112.693C141.852 83.5339 189.128 83.5339 218.288 112.693ZM421.934 120.236L120.236 421.934L90.0656 391.765L391.765 90.0656L421.934 120.236ZM369.137 369.137C381.634 356.64 381.634 336.379 369.137 323.882C356.64 311.385 336.379 311.385 323.882 323.882C311.385 336.379 311.385 356.64 323.882 369.137C336.379 381.634 356.64 381.634 369.137 369.137ZM399.307 399.307C428.466 370.148 428.466 322.871 399.307 293.712C370.148 264.553 322.872 264.553 293.712 293.712C264.553 322.871 264.553 370.148 293.712 399.307C322.872 428.466 370.148 428.466 399.307 399.307Z" fill="black"/>
</svg>
