<?xml version="1.0" encoding="UTF-8"?>
<!-- Created with Inkscape (http://www.inkscape.org/) -->
<svg id="a" width="180px" height="180px" version="1.1" viewBox="0 0 180 180" xml:space="preserve" xmlns="http://www.w3.org/2000/svg"><g transform="matrix(1.12 0 0 1.12 -10.7 -10.7)" fill="none" stroke="#000" stroke-linecap="round" stroke-linejoin="round" stroke-width="7.2"><path d="m51.1 86.6c-0.633 21.6 19 37.6 38.9 38.2 19.9-0.582 39.5-16.6 38.9-38.2"/><path d="m66 149h47.9"/><path d="m90 127v20.6"/><path d="m102 55.2h10.1"/><path d="m77.9 55.2h-10.1"/><path d="m103 85.8h8.1"/><path d="m76.7 85.8h-8.1"/><path d="m82.6 71.2h-13m27.9 0h13m-20.9-39.8c-12.7 0-22.9 10.6-22.9 23.8v31c0 13.2 10.2 23.8 22.9 23.8h0.82c12.7 0 22.9-10.6 22.9-23.8v-31c0-13.2-10.2-23.8-22.9-23.8h-0.41z"/></g></svg>
