<?xml version="1.0" encoding="UTF-8" standalone="no"?>
<!-- Created with Inkscape (http://www.inkscape.org/) -->

<svg
   width="180"
   height="180"
   viewBox="0 0 180 180"
   version="1.1"
   id="svg1"
   xml:space="preserve"
   sodipodi:docname="drawing.svg"
   inkscape:version="1.3 (0e150ed6c4, 2023-07-21)"
   xmlns:inkscape="http://www.inkscape.org/namespaces/inkscape"
   xmlns:sodipodi="http://sodipodi.sourceforge.net/DTD/sodipodi-0.dtd"
   xmlns="http://www.w3.org/2000/svg"
   xmlns:svg="http://www.w3.org/2000/svg"><sodipodi:namedview
     id="namedview1"
     pagecolor="#ffffff"
     bordercolor="#000000"
     borderopacity="0.25"
     inkscape:showpageshadow="2"
     inkscape:pageopacity="0.0"
     inkscape:pagecheckerboard="0"
     inkscape:deskcolor="#d1d1d1"
     inkscape:document-units="px"
     inkscape:zoom="4.036421"
     inkscape:cx="88.320817"
     inkscape:cy="104.42419"
     inkscape:window-width="1920"
     inkscape:window-height="1011"
     inkscape:window-x="0"
     inkscape:window-y="0"
     inkscape:window-maximized="1"
     inkscape:current-layer="g2" /><defs
     id="defs1"><inkscape:path-effect
       effect="tiling"
       id="path-effect1"
       is_visible="true"
       lpeversion="1"
       unit="px"
       seed="1;1"
       lpesatellites=""
       num_rows="1"
       num_cols="2"
       gapx="63"
       gapy="0"
       offset="0"
       offset_type="false"
       scale="0"
       rotate="0"
       mirrorrowsx="false"
       mirrorrowsy="false"
       mirrorcolsx="false"
       mirrorcolsy="false"
       mirrortrans="false"
       shrink_interp="false"
       split_items="false"
       link_styles="false"
       interpolate_scalex="false"
       interpolate_scaley="true"
       interpolate_rotatex="false"
       interpolate_rotatey="true"
       random_scale="false"
       random_rotate="false"
       random_gap_y="false"
       random_gap_x="false"
       transformorigin="" /></defs><g
     inkscape:label="Layer 1"
     inkscape:groupmode="layer"
     id="layer1"><g
       id="g1"><path
         style="opacity:1;fill:#000000;fill-opacity:0.603051;stroke-width:0;stroke-linecap:round;stroke-linejoin:round"
         d="M 29.573848,116.17188 H 48.21875 c 1.966568,0 3.550781,-1.67728 3.550781,-3.76172 V 67.517578 c 0,-2.084446 -1.584213,-3.761719 -3.550781,-3.761719 H 29.528604 Z"
         id="path31"
         transform="translate(0.312502,0.0927485)" /><path
         d="m 33.271486,37.254859 c -1.966559,0 -3.548828,1.67728 -3.548828,3.761719 v 3.869141 c 0.139076,-0.01741 0.276289,-0.04492 0.419922,-0.04492 h 8.074219 c 1.966559,0 3.548828,1.677279 3.548828,3.761719 v 3.677732 c 0,2.084439 -1.582269,3.763672 -3.548828,3.763672 H 30.14258 c -0.143633,0 -0.280846,-0.02751 -0.419922,-0.04492 v 7.849609 h 18.808594 c 1.966566,0 3.550781,1.677275 3.550781,3.76172 v 44.892579 c 0,2.08444 -1.584215,3.76172 -3.550781,3.76172 H 29.722658 v 7.82421 c 0.139076,-0.0174 0.276289,-0.0449 0.419922,-0.0449 h 8.074219 c 1.966559,0 3.548828,1.67727 3.548828,3.76172 v 3.67969 c 0,2.08444 -1.582269,3.76172 -3.548828,3.76172 H 30.14258 c -0.143633,0 -0.280846,-0.0275 -0.419922,-0.0449 v 3.78125 c 0,2.08445 1.582269,3.76172 3.548828,3.76172 H 146.72656 c 1.96657,0 3.55078,-1.67727 3.55078,-3.76172 v -4.00195 c -0.40115,0.16587 -0.83512,0.26563 -1.29297,0.26563 h -8.07421 c -1.96656,0 -3.54883,-1.67728 -3.54883,-3.76172 v -3.67969 c 0,-2.08445 1.58227,-3.76172 3.54883,-3.76172 h 8.07421 c 0.45785,0 0.89182,0.0998 1.29297,0.26563 v -8.04492 h -18.88476 c -1.96657,0 -3.54883,-1.67728 -3.54883,-3.76172 V 67.610328 c 0,-2.084444 1.58226,-3.761719 3.54883,-3.761719 h 18.88476 v -8.070312 c -0.40115,0.165871 -0.83512,0.265625 -1.29297,0.265625 h -8.07421 c -1.96656,0 -3.54883,-1.679233 -3.54883,-3.763672 v -3.677734 c 0,-2.08444 1.58227,-3.761719 3.54883,-3.761719 h 8.07421 c 0.45782,0 0.89184,0.09782 1.29297,0.263672 v -4.087891 c 0,-2.084439 -1.58421,-3.761719 -3.55078,-3.761719 z m 19.023438,7.585938 h 8.074219 c 1.966559,0 3.550781,1.677279 3.550781,3.761719 v 3.677734 c 0,2.084439 -1.584222,3.763672 -3.550781,3.763672 h -8.074219 c -1.966559,0 -3.548828,-1.679233 -3.548828,-3.763672 v -3.677734 c 0,-2.08444 1.582269,-3.761719 3.548828,-3.761719 z m 22.154297,0 h 8.074218 c 1.966561,0 3.550782,1.677279 3.550782,3.761719 v 3.677734 c 0,2.084439 -1.584221,3.763672 -3.550782,3.763672 h -8.074218 c -1.966559,0 -3.548828,-1.679233 -3.548828,-3.763672 v -3.677734 c 0,-2.08444 1.582269,-3.761719 3.548828,-3.761719 z m 22.154297,0 h 8.074212 c 1.96657,0 3.54883,1.677279 3.54883,3.761719 v 3.677734 c 0,2.084439 -1.58226,3.763672 -3.54883,3.763672 h -8.074212 c -1.966559,0 -3.550782,-1.679233 -3.550782,-3.763672 v -3.677734 c 0,-2.08444 1.584223,-3.761719 3.550782,-3.761719 z m 22.154292,0 h 8.07422 c 1.96656,0 3.54883,1.677279 3.54883,3.761719 v 3.677734 c 0,2.084439 -1.58227,3.763672 -3.54883,3.763672 h -8.07422 c -1.96656,0 -3.55078,-1.679233 -3.55078,-3.763672 v -3.677734 c 0,-2.08444 1.58422,-3.761719 3.55078,-3.761719 z M 63.630861,63.848609 h 52.662109 c 1.96656,0 3.55078,1.677275 3.55078,3.761719 v 44.892582 c 0,2.08444 -1.58422,3.76172 -3.55078,3.76172 H 63.630861 c -1.966566,0 -3.548828,-1.67728 -3.548828,-3.76172 V 67.610328 c 0,-2.084444 1.582262,-3.761719 3.548828,-3.761719 z M 52.294924,124.04392 h 8.074219 c 1.966559,0 3.550781,1.67727 3.550781,3.76172 v 3.67969 c 0,2.08444 -1.584222,3.76172 -3.550781,3.76172 h -8.074219 c -1.966559,0 -3.548828,-1.67728 -3.548828,-3.76172 v -3.67969 c 0,-2.08445 1.582269,-3.76172 3.548828,-3.76172 z m 22.154297,0 h 8.074218 c 1.966561,0 3.550782,1.67727 3.550782,3.76172 v 3.67969 c 0,2.08444 -1.584221,3.76172 -3.550782,3.76172 h -8.074218 c -1.966559,0 -3.548828,-1.67728 -3.548828,-3.76172 v -3.67969 c 0,-2.08445 1.582269,-3.76172 3.548828,-3.76172 z m 22.154297,0 h 8.074212 c 1.96657,0 3.54883,1.67727 3.54883,3.76172 v 3.67969 c 0,2.08444 -1.58226,3.76172 -3.54883,3.76172 h -8.074212 c -1.966559,0 -3.550782,-1.67728 -3.550782,-3.76172 v -3.67969 c 0,-2.08445 1.584223,-3.76172 3.550782,-3.76172 z m 22.154292,0 h 8.07422 c 1.96656,0 3.54883,1.67727 3.54883,3.76172 v 3.67969 c 0,2.08444 -1.58227,3.76172 -3.54883,3.76172 h -8.07422 c -1.96656,0 -3.55078,-1.67728 -3.55078,-3.76172 v -3.67969 c 0,-2.08445 1.58422,-3.76172 3.55078,-3.76172 z"
         style="opacity:1;fill:#000000;fill-opacity:0.803949;stroke-width:0;stroke-linecap:round;stroke-linejoin:round"
         id="path32" /><path
         style="opacity:1;fill:#000000;fill-opacity:0.596862;stroke-width:0;stroke-linecap:round;stroke-linejoin:round"
         d="m 63.318359,63.755859 c -1.966568,0 -3.548828,1.677273 -3.548828,3.761719 v 44.892582 c 0,2.08444 1.58226,3.76172 3.548828,3.76172 h 52.662111 c 1.96657,0 3.55078,-1.67728 3.55078,-3.76172 V 67.517578 c 0,-2.084446 -1.58421,-3.761719 -3.55078,-3.761719 z"
         id="path33"
         transform="translate(0.312502,0.0927485)" /><path
         style="opacity:1;fill:#000000;fill-opacity:0.597388;stroke-width:0;stroke-linecap:round;stroke-linejoin:round"
         d="m 131.08008,63.755859 c -1.96657,0 -3.54883,1.677273 -3.54883,3.761719 v 44.892582 c 0,2.08444 1.58226,3.76172 3.54883,3.76172 h 18.84586 l 0.0207,-52.416021 z"
         id="path34"
         transform="translate(0.312502,0.0927485)" /></g><g
       id="g2"><path
         style="opacity:1;fill:#ef0000;fill-opacity:1;stroke-width:0;stroke-linecap:round;stroke-linejoin:round"
         d="m 125.83594,20.730477 c -2.40177,0 -4.33594,1.934167 -4.33594,4.335938 0,2.401771 1.93417,4.333985 4.33594,4.333985 h 3.95507 v 121.1992 h -3.95507 c -2.40177,0 -4.33594,1.93417 -4.33594,4.33594 0,2.40177 1.93417,4.33398 4.33594,4.33398 h 17.73242 c 2.40177,0 4.33594,-1.93221 4.33594,-4.33398 0,-2.40177 -1.93417,-4.33594 -4.33594,-4.33594 h -3.95508 V 29.400399 h 3.95508 c 2.40177,0 4.33594,-1.932213 4.33594,-4.333985 0,-2.40177 -1.93417,-4.335937 -4.33594,-4.335937 z"
         id="path2" /><path
         style="opacity:1;fill:#4114ff;fill-opacity:1;stroke-width:0;stroke-linecap:round;stroke-linejoin:round"
         d="m 36.43164,20.730477 c -2.40177,0 -4.33594,1.934167 -4.33594,4.335938 0,2.401771 1.93417,4.333985 4.33594,4.333985 h 3.95507 v 121.1992 h -3.95507 c -2.40177,0 -4.33594,1.93417 -4.33594,4.33594 0,2.40177 1.93417,4.33398 4.33594,4.33398 h 17.73242 c 2.40177,0 4.33594,-1.93221 4.33594,-4.33398 0,-2.40177 -1.93417,-4.33594 -4.33594,-4.33594 H 50.20898 V 29.400399 h 3.95508 c 2.40177,0 4.33594,-1.932213 4.33594,-4.333985 0,-2.40177 -1.93417,-4.335937 -4.33594,-4.335937 z"
         id="path43" /></g></g></svg>
