<?xml version="1.0" encoding="UTF-8"?>
<!-- Created with Inkscape (http://www.inkscape.org/) -->
<svg width="180" height="180" version="1.1" viewBox="0 0 180 180" xml:space="preserve" xmlns="http://www.w3.org/2000/svg"><g stroke="#000" stroke-linejoin="round"><path d="m42.29 61.58h95.42a12.62 12.51 0 0 1 12.62 12.51v34.34a12.62 12.51 0 0 1-12.62 12.51h-95.42a12.62 12.51 0 0 1-12.62-12.51v-34.34a12.62 12.51 0 0 1 12.62-12.51z" fill-opacity=".3586" stroke-width="4.628"/><g stroke-width="4.487"><path d="m45.99 71.46h88.02c3.983 0 7.211 3.2 7.211 7.147v25.28c0 3.947-3.229 7.147-7.211 7.147h-88.02c-3.983 0-7.211-3.2-7.211-7.147v-25.28c0-3.947 3.229-7.147 7.211-7.147z" fill-opacity=".36"/><path d="m61.32 61.11v-5.125a8.113 8.04 0 0 1 8.113-8.04h41.13a8.113 8.04 0 0 1 8.113 8.04v5.125" fill-opacity=".3586"/><path d="m76.1 121.2v4.573a6.31 6.254 0 0 1-6.31 6.254h-11.86a6.31 6.254 0 0 1-6.31-6.254v-4.573" fill-opacity=".3566"/><path d="m128.4 121.2v4.573a6.31 6.254 0 0 1-6.31 6.254h-11.86a6.31 6.254 0 0 1-6.31-6.254v-4.573" fill-opacity=".3643"/></g></g><g stroke-width="0"><path d="m132.5 89.91q0 3.972-0.829 6.839-0.829 2.832-2.625 4.352-1.796 1.52-4.767 1.52-4.179 0-6.183-3.35-1.969-3.385-1.969-9.361 0-4.007 0.7944-6.839 0.829-2.832 2.625-4.318 1.796-1.52 4.732-1.52 4.145 0 6.183 3.35 2.038 3.316 2.038 9.326zm-13.33 0q0 5.078 1.14 7.599 1.174 2.521 3.972 2.521 2.763 0 3.938-2.487 1.209-2.521 1.209-7.634 0-5.043-1.209-7.564-1.174-2.521-3.938-2.521-2.798 0-3.972 2.521-1.14 2.521-1.14 7.564z"/><path d="m112.7 89.91q0 3.972-0.829 6.839-0.829 2.832-2.625 4.352-1.796 1.52-4.767 1.52-4.179 0-6.183-3.35-1.969-3.385-1.969-9.361 0-4.007 0.7944-6.839 0.829-2.832 2.625-4.318 1.796-1.52 4.732-1.52 4.145 0 6.183 3.35 2.038 3.316 2.038 9.326zm-13.33 0q0 5.078 1.14 7.599 1.174 2.521 3.972 2.521 2.763 0 3.938-2.487 1.209-2.521 1.209-7.634 0-5.043-1.209-7.564-1.174-2.521-3.938-2.521-2.798 0-3.972 2.521-1.14 2.521-1.14 7.564z"/><path d="m87.86 100.4q0-1.278 0.6217-1.796 0.6217-0.5181 1.485-0.5181 0.8981 0 1.52 0.5181 0.6563 0.5181 0.6563 1.796 0 1.243-0.6563 1.796-0.6217 0.5526-1.52 0.5526-0.8635 0-1.485-0.5526-0.6217-0.5527-0.6217-1.796z"/><path d="m87.86 85.63q0-1.313 0.6217-1.831 0.6217-0.5181 1.485-0.5181 0.8981 0 1.52 0.5181 0.6563 0.5181 0.6563 1.831 0 1.243-0.6563 1.796-0.6217 0.5527-1.52 0.5527-0.8635 0-1.485-0.5527-0.6217-0.5527-0.6217-1.796z"/><path d="m67.51 91.74q0-2.66 0.449-5.216 0.4836-2.591 1.693-4.663 1.243-2.107 3.454-3.35 2.211-1.243 5.699-1.243 0.7254 0 1.589 0.06908 0.8981 0.06908 1.451 0.2418v2.591q-0.6217-0.2072-1.416-0.3109-0.7599-0.1036-1.554-0.1036-2.383 0-3.972 0.7944-1.589 0.7944-2.521 2.176-0.8981 1.382-1.313 3.178-0.4145 1.796-0.5181 3.834h0.2072q0.7944-1.209 2.211-2.038 1.416-0.8635 3.627-0.8635 3.212 0 5.181 1.969 1.969 1.934 1.969 5.527 0 3.869-2.142 6.079-2.107 2.211-5.699 2.211-2.349 0-4.249-1.174t-3.04-3.592q-1.105-2.418-1.105-6.114zm8.359 8.324q2.176 0 3.523-1.382 1.347-1.416 1.347-4.352 0-2.349-1.209-3.73-1.174-1.382-3.558-1.382-1.623 0-2.832 0.6908-1.209 0.6563-1.9 1.693-0.6563 1.036-0.6563 2.142 0 1.485 0.5872 2.971 0.5872 1.451 1.762 2.418 1.174 0.9326 2.936 0.9326z"/><path d="m63.92 89.91q0 3.972-0.829 6.839-0.829 2.832-2.625 4.352-1.796 1.52-4.767 1.52-4.179 0-6.183-3.35-1.969-3.385-1.969-9.361 0-4.007 0.7944-6.839 0.829-2.832 2.625-4.318 1.796-1.52 4.732-1.52 4.145 0 6.183 3.35 2.038 3.316 2.038 9.326zm-13.33 0q0 5.078 1.14 7.599 1.174 2.521 3.972 2.521 2.763 0 3.938-2.487 1.209-2.521 1.209-7.634 0-5.043-1.209-7.564-1.174-2.521-3.938-2.521-2.798 0-3.972 2.521-1.14 2.521-1.14 7.564z"/></g></svg>
