<?xml version="1.0" encoding="UTF-8" standalone="no"?>
<!-- Created with Inkscape (http://www.inkscape.org/) -->

<svg
   width="180"
   height="180"
   viewBox="0 0 180 180"
   version="1.1"
   id="svg1"
   xml:space="preserve"
   inkscape:version="1.3 (0e150ed6c4, 2023-07-21)"
   sodipodi:docname="ic_alarm.svg"
   xmlns:inkscape="http://www.inkscape.org/namespaces/inkscape"
   xmlns:sodipodi="http://sodipodi.sourceforge.net/DTD/sodipodi-0.dtd"
   xmlns="http://www.w3.org/2000/svg"
   xmlns:svg="http://www.w3.org/2000/svg"><sodipodi:namedview
     id="namedview1"
     pagecolor="#ffffff"
     bordercolor="#000000"
     borderopacity="0.25"
     inkscape:showpageshadow="2"
     inkscape:pageopacity="0.0"
     inkscape:pagecheckerboard="0"
     inkscape:deskcolor="#d1d1d1"
     inkscape:document-units="px"
     inkscape:zoom="3.6916806"
     inkscape:cx="89.796501"
     inkscape:cy="86.00419"
     inkscape:window-width="1920"
     inkscape:window-height="1011"
     inkscape:window-x="0"
     inkscape:window-y="0"
     inkscape:window-maximized="1"
     inkscape:current-layer="layer1" /><defs
     id="defs1" /><g
     inkscape:label="Layer 1"
     inkscape:groupmode="layer"
     id="layer1"><path
       id="rect1"
       style="fill:#000000;fill-opacity:0.358571;stroke:#000000;stroke-width:4.62768;stroke-linejoin:round"
       d="m 42.291861,61.584466 h 95.416279 a 12.619962,12.507292 0 0 1 12.61996,12.507292 v 34.340422 a 12.619962,12.507292 0 0 1 -12.61996,12.50729 H 42.291861 A 12.619962,12.507292 0 0 1 29.671899,108.43218 V 74.091758 A 12.619962,12.507292 0 0 1 42.291861,61.584466 Z" /><path
       id="rect2"
       style="fill:#000000;fill-opacity:0.36;stroke:#000000;stroke-width:4.48696;stroke-linejoin:round"
       d="m 45.991924,71.457311 h 88.016156 c 3.98275,0 7.21141,3.199832 7.21141,7.147025 v 25.276594 c 0,3.9472 -3.22866,7.14703 -7.21141,7.14703 H 45.991924 c -3.98275,0 -7.211407,-3.19983 -7.211407,-7.14703 V 78.604336 c 0,-3.947193 3.228657,-7.147025 7.211407,-7.147025 z"
       sodipodi:nodetypes="sssssssss" /><path
       id="rect3"
       style="fill:#000000;fill-opacity:0.358634;stroke:#000000;stroke-width:4.48696;stroke-linejoin:round"
       d="m 61.320516,61.110223 v -5.125217 a 8.1128328,8.0404021 0 0 1 8.112833,-8.040402 h 41.133301 a 8.1128328,8.0404021 0 0 1 8.11284,8.040402 v 5.125217"
       sodipodi:nodetypes="cccc" /><path
       id="rect4"
       style="fill:#000000;fill-opacity:0.356602;stroke:#000000;stroke-width:4.48696;stroke-linejoin:round"
       d="m 76.097756,121.22861 v 4.57315 a 6.3099811,6.2536461 0 0 1 -6.309981,6.25364 H 57.929524 a 6.3099811,6.2536461 0 0 1 -6.309981,-6.25364 v -4.57315"
       sodipodi:nodetypes="cccc" /><path
       id="path5"
       style="fill:#000000;fill-opacity:0.364332;stroke:#000000;stroke-width:4.48696;stroke-linejoin:round"
       d="m 128.38046,121.22861 v 4.57315 a 6.3099811,6.2536461 0 0 1 -6.30998,6.25364 h -11.85826 a 6.3099811,6.2536461 0 0 1 -6.30998,-6.25364 v -4.57315"
       sodipodi:nodetypes="cccc" /><path
       style="font-size:34.5409px;font-family:'Noto Sans';-inkscape-font-specification:'Noto Sans';stroke:#000000;stroke-width:0;stroke-linejoin:round"
       d="m 132.45079,89.913647 q 0,3.972203 -0.82899,6.839098 -0.82898,2.832354 -2.6251,4.352155 -1.79613,1.5198 -4.76665,1.5198 -4.17945,0 -6.18282,-3.350469 -1.96883,-3.385008 -1.96883,-9.360584 0,-4.006745 0.79444,-6.839099 0.82898,-2.832354 2.62511,-4.317612 1.79613,-1.5198 4.7321,-1.5198 4.14491,0 6.18282,3.350467 2.03792,3.315927 2.03792,9.326044 z m -13.33279,0 q 0,5.077512 1.13985,7.598998 1.17439,2.521485 3.9722,2.521485 2.76327,0 3.93766,-2.486944 1.20894,-2.521486 1.20894,-7.633539 0,-5.042972 -1.20894,-7.564458 -1.17439,-2.521486 -3.93766,-2.521486 -2.79781,0 -3.9722,2.521486 -1.13985,2.521486 -1.13985,7.564458 z"
       id="path10" /><path
       style="font-size:34.5409px;font-family:'Noto Sans';-inkscape-font-specification:'Noto Sans';stroke:#000000;stroke-width:0;stroke-linejoin:round"
       d="m 112.69338,89.913647 q 0,3.972203 -0.82898,6.839098 -0.82899,2.832354 -2.62511,4.352155 -1.79613,1.5198 -4.76665,1.5198 -4.17945,0 -6.182818,-3.350469 -1.968831,-3.385008 -1.968831,-9.360584 0,-4.006745 0.794441,-6.839099 0.828981,-2.832354 2.625108,-4.317612 1.79613,-1.5198 4.7321,-1.5198 4.14491,0 6.18282,3.350467 2.03792,3.315927 2.03792,9.326044 z m -13.33279,0 q 0,5.077512 1.13985,7.598998 1.17439,2.521485 3.9722,2.521485 2.76328,0 3.93767,-2.486944 1.20893,-2.521486 1.20893,-7.633539 0,-5.042972 -1.20893,-7.564458 -1.17439,-2.521486 -3.93767,-2.521486 -2.79781,0 -3.9722,2.521486 -1.13985,2.521486 -1.13985,7.564458 z"
       id="path9" /><path
       style="font-size:34.5409px;font-family:'Noto Sans';-inkscape-font-specification:'Noto Sans';stroke:#000000;stroke-width:0;stroke-linejoin:round"
       d="m 87.858481,100.41408 q 0,-1.278013 0.621736,-1.796126 0.621737,-0.518114 1.485259,-0.518114 0.898064,0 1.5198,0.518114 0.656277,0.518113 0.656277,1.796126 0,1.24347 -0.656277,1.79613 -0.621736,0.55265 -1.5198,0.55265 -0.863522,0 -1.485259,-0.55265 -0.621736,-0.55266 -0.621736,-1.79613 z"
       id="path8" /><path
       style="font-size:34.5409px;font-family:'Noto Sans';-inkscape-font-specification:'Noto Sans';stroke:#000000;stroke-width:0;stroke-linejoin:round"
       d="m 87.858481,85.630575 q 0,-1.312554 0.621736,-1.830668 0.621737,-0.518113 1.485259,-0.518113 0.898064,0 1.5198,0.518113 0.656277,0.518114 0.656277,1.830668 0,1.243472 -0.656277,1.796127 -0.621736,0.552654 -1.5198,0.552654 -0.863522,0 -1.485259,-0.552654 -0.621736,-0.552655 -0.621736,-1.796127 z"
       id="path7" /><path
       style="font-size:34.5409px;font-family:'Noto Sans';-inkscape-font-specification:'Noto Sans';stroke:#000000;stroke-width:0;stroke-linejoin:round"
       d="m 67.513874,91.744314 q 0,-2.659649 0.449032,-5.215676 0.483572,-2.590567 1.692504,-4.663021 1.243472,-2.106995 3.45409,-3.350468 2.210618,-1.243472 5.699249,-1.243472 0.725358,0 1.588881,0.06908 0.898063,0.06908 1.450718,0.241786 v 2.590567 q -0.621736,-0.207245 -1.416177,-0.310868 -0.7599,-0.103622 -1.554341,-0.103622 -2.383322,0 -3.972203,0.79444 -1.588882,0.794441 -2.521486,2.176077 -0.898064,1.381636 -1.312554,3.177763 -0.414491,1.796127 -0.518114,3.83404 h 0.207246 q 0.79444,-1.208931 2.210617,-2.037913 1.416177,-0.863523 3.626795,-0.863523 3.212304,0 5.181135,1.968832 1.968831,1.93429 1.968831,5.526544 0,3.868581 -2.141535,6.0792 -2.106995,2.21062 -5.699249,2.21062 -2.348781,0 -4.248531,-1.17439 -1.89975,-1.17439 -3.039599,-3.592258 -1.105309,-2.417863 -1.105309,-6.11374 z m 8.358898,8.324356 q 2.176077,0 3.523172,-1.381634 1.347095,-1.416177 1.347095,-4.352154 0,-2.348781 -1.208932,-3.730417 -1.17439,-1.381636 -3.557712,-1.381636 -1.623423,0 -2.832354,0.690818 -1.208932,0.656277 -1.89975,1.692504 -0.656277,1.036227 -0.656277,2.141536 0,1.485258 0.587195,2.970517 0.587196,1.450718 1.761586,2.417863 1.174391,0.932603 2.935977,0.932603 z"
       id="path6" /><path
       style="font-size:34.5409px;font-family:'Noto Sans';-inkscape-font-specification:'Noto Sans';stroke:#000000;stroke-width:0;stroke-linejoin:round"
       d="m 63.921604,89.913647 q 0,3.972203 -0.828982,6.839098 -0.828982,2.832354 -2.625108,4.352155 -1.796127,1.5198 -4.766645,1.5198 -4.179449,0 -6.182821,-3.350469 -1.968832,-3.385008 -1.968832,-9.360584 0,-4.006745 0.794441,-6.839099 0.828982,-2.832354 2.625109,-4.317612 1.796127,-1.5198 4.732103,-1.5198 4.144908,0 6.182821,3.350467 2.037914,3.315927 2.037914,9.326044 z m -13.332788,0 q 0,5.077512 1.13985,7.598998 1.17439,2.521485 3.972203,2.521485 2.763272,0 3.937663,-2.486944 1.208931,-2.521486 1.208931,-7.633539 0,-5.042972 -1.208931,-7.564458 -1.174391,-2.521486 -3.937663,-2.521486 -2.797813,0 -3.972203,2.521486 -1.13985,2.521486 -1.13985,7.564458 z"
       id="text5" /></g></svg>
